<svg width="32" height="32" viewBox="0 0 32 32" fill="none" xmlns="http://www.w3.org/2000/svg">
<path d="M25.8247 0.0403652C29.2353 0.0403734 32 2.80133 32 6.20711V25.8294C32 29.2352 29.2353 31.9962 25.8247 31.9962H6.17527C6.17195 31.9962 6.16863 31.9961 6.1653 31.9961H8.45991L12.9554 24.2384H28.7632L18.7811 7.00862L8.79887 24.2384L4.44537 31.7508C1.87689 31.0038 1.54384e-05 28.6356 0 25.8294V6.20716C0 2.80137 2.76477 0.0403652 6.17527 0.0403652H25.8247ZM3.2368 24.2365H7.39349L17.3766 7.00977H13.199L3.2368 24.2365ZM22.1943 20.0873H15.3677L18.7722 14.1819H18.7723L22.1943 20.0873Z" fill="#111A4A"/>
</svg>
