<svg width="64" height="64" viewBox="0 0 64 64" fill="none" xmlns="http://www.w3.org/2000/svg">
<path d="M24 36.6666C17.76 36.6666 5.33331 39.7866 5.33331 45.9999V50.6666H42.6666V45.9999C42.6666 39.7866 30.24 36.6666 24 36.6666ZM11.5733 45.3333C13.8133 43.7866 19.2266 41.9999 24 41.9999C28.7733 41.9999 34.1866 43.7866 36.4266 45.3333H11.5733ZM24 31.9999C29.1466 31.9999 33.3333 27.8133 33.3333 22.6666C33.3333 17.5199 29.1466 13.3333 24 13.3333C18.8533 13.3333 14.6666 17.5199 14.6666 22.6666C14.6666 27.8133 18.8533 31.9999 24 31.9999ZM24 18.6666C26.2133 18.6666 28 20.4533 28 22.6666C28 24.8799 26.2133 26.6666 24 26.6666C21.7866 26.6666 20 24.8799 20 22.6666C20 20.4533 21.7866 18.6666 24 18.6666ZM42.7733 36.8266C45.8666 39.0666 48 42.0533 48 45.9999V50.6666H58.6666V45.9999C58.6666 40.6133 49.3333 37.5466 42.7733 36.8266ZM40 31.9999C45.1466 31.9999 49.3333 27.8133 49.3333 22.6666C49.3333 17.5199 45.1466 13.3333 40 13.3333C38.56 13.3333 37.2266 13.6799 36 14.2666C37.68 16.6399 38.6666 19.5466 38.6666 22.6666C38.6666 25.7866 37.68 28.6933 36 31.0666C37.2266 31.6533 38.56 31.9999 40 31.9999Z" fill="#ADADAD"/>
</svg>
