<svg width="40" height="40" viewBox="0 0 40 40" fill="none" xmlns="http://www.w3.org/2000/svg">
<rect width="40" height="40" rx="4" fill="#F9FBFC"/>
<path d="M16.5 20C18.7517 20 20.5833 18.1683 20.5833 15.9167C20.5833 13.665 18.7517 11.8333 16.5 11.8333C14.2483 11.8333 12.4167 13.665 12.4167 15.9167C12.4167 18.1683 14.2483 20 16.5 20ZM16.5 14.1667C17.4683 14.1667 18.25 14.9483 18.25 15.9167C18.25 16.885 17.4683 17.6667 16.5 17.6667C15.5317 17.6667 14.75 16.885 14.75 15.9167C14.75 14.9483 15.5317 14.1667 16.5 14.1667ZM16.5 22.0417C13.77 22.0417 8.33334 23.4067 8.33334 26.125V27C8.33334 27.6417 8.85834 28.1667 9.50001 28.1667H23.5C24.1417 28.1667 24.6667 27.6417 24.6667 27V26.125C24.6667 23.4067 19.23 22.0417 16.5 22.0417ZM11.0633 25.8333C12.0433 25.1567 14.4117 24.375 16.5 24.375C18.5883 24.375 20.9567 25.1567 21.9367 25.8333H11.0633ZM24.7133 22.1117C26.0667 23.0917 27 24.3983 27 26.125V28.1667H30.5C31.1417 28.1667 31.6667 27.6417 31.6667 27V26.125C31.6667 23.7683 27.5833 22.4267 24.7133 22.1117ZM23.5 20C25.7517 20 27.5833 18.1683 27.5833 15.9167C27.5833 13.665 25.7517 11.8333 23.5 11.8333C22.87 11.8333 22.2867 11.985 21.75 12.2417C22.485 13.28 22.9167 14.5517 22.9167 15.9167C22.9167 17.2817 22.485 18.5533 21.75 19.5917C22.2867 19.8483 22.87 20 23.5 20Z" fill="#575E67"/>
</svg>
